<?xml version="1.0" standalone="no"?>
<!DOCTYPE svg PUBLIC "-//W3C//DTD SVG 20010904//EN"
 "http://www.w3.org/TR/2001/REC-SVG-20010904/DTD/svg10.dtd">
<svg version="1.0" xmlns="http://www.w3.org/2000/svg"
 width="1920.000000pt" height="1920.000000pt" viewBox="0 0 1920.000000 1920.000000"
 preserveAspectRatio="xMidYMid meet">
<metadata>
Created by potrace 1.11, written by Peter Selinger 2001-2013
</metadata>
<g transform="translate(0.000000,1920.000000) scale(0.100000,-0.100000)"
fill="#000000" stroke="none">
<path d="M5593 14029 c-159 -27 -282 -143 -356 -336 l-22 -58 -3 -4010 c-1
-2433 1 -4029 7 -4060 31 -167 141 -307 288 -366 l58 -24 1935 -3 c2144 -2
1989 -7 2096 63 90 59 158 161 190 285 24 96 16 394 -13 472 -50 135 -137 242
-232 287 l-56 26 -1572 3 -1573 2 0 3629 c0 3561 0 3629 -19 3704 -61 236
-173 356 -361 386 -76 13 -292 12 -367 0z"/>
<path d="M11675 13548 c-693 -78 -1256 -555 -1490 -1262 -71 -214 -114 -433
-135 -690 -14 -177 -14 -4257 0 -4433 51 -630 251 -1109 612 -1465 254 -250
541 -399 913 -470 107 -21 139 -22 1180 -25 l1070 -4 44 23 c31 16 51 36 65
63 19 37 21 58 21 250 0 192 -2 213 -20 244 -11 19 -33 43 -48 55 -28 21 -31
21 -1095 27 -1149 6 -1124 4 -1322 59 -92 26 -236 93 -321 150 -227 153 -415
461 -497 815 -60 256 -56 91 -60 2435 -2 1547 0 2177 8 2260 42 421 182 760
407 983 166 165 337 254 592 310 93 20 130 21 1176 26 l1080 6 31 22 c62 45
69 74 69 308 0 192 -2 213 -20 244 -11 19 -33 43 -48 55 l-28 21 -1052 1
c-579 1 -1088 -3 -1132 -8z"/>
</g>
</svg>
